if (_typeface_js && _typeface_js.loadFace) _typeface_js.loadFace({"glyphs":{"0":{"ha":719,"x_min":64,"x_max":655,"o":"m 655 282 q 568 73 655 159 q 360 -13 481 -13 q 150 73 237 -13 q 64 282 64 160 l 64 957 q 151 1166 64 1080 q 360 1253 238 1253 q 569 1166 483 1253 q 655 957 655 1079 l 655 282 m 462 961 q 430 1037 462 1005 q 354 1068 399 1068 q 279 1037 310 1068 q 248 961 248 1005 l 248 285 q 279 209 248 241 q 354 178 310 178 q 430 209 399 178 q 462 285 462 241 l 462 961 z "},"1":{"ha":473,"x_min":64,"x_max":409,"o":"m 222 0 l 222 952 l 64 952 l 64 1082 q 192 1133 131 1090 q 279 1237 253 1176 l 409 1237 l 409 0 l 222 0 z "},"2":{"ha":736,"x_min":64,"x_max":672,"o":"m 67 888 q 162 1156 67 1063 q 377 1238 244 1238 q 585 1146 499 1238 q 672 932 672 1054 q 616 689 672 806 q 472 465 585 623 q 382 329 442 421 l 348 279 q 299 201 316 230 q 291 184 291 187 l 657 183 l 657 1 l 64 1 l 64 172 q 106 240 64 178 q 148 303 124 268 l 196 373 q 329 559 239 431 q 458 777 415 680 q 492 926 492 857 q 461 1022 492 982 q 372 1063 426 1063 q 261 974 294 1063 q 251 903 251 944 l 251 855 l 67 855 l 67 888 z "},"3":{"ha":733,"x_min":64,"x_max":669,"o":"m 354 178 q 482 297 482 178 l 482 370 q 283 560 482 560 l 283 720 q 442 780 391 720 q 489 932 489 835 l 489 961 q 383 1082 489 1082 q 296 1037 324 1082 q 275 947 275 1002 l 275 914 l 93 914 l 93 943 q 160 1158 93 1075 q 374 1253 236 1253 q 584 1164 505 1253 q 655 965 655 1084 l 655 912 q 586 713 655 797 q 517 653 556 678 q 645 512 600 607 q 669 395 669 464 l 669 297 q 575 72 669 160 q 359 -13 485 -13 q 150 74 236 -13 q 64 282 64 161 l 64 313 l 242 327 l 246 283 q 279 207 250 237 q 354 178 308 178 z "},"4":{"ha":763,"x_min":64,"x_max":699,"o":"m 64 455 l 394 1238 l 580 1238 l 580 455 l 699 455 l 699 267 l 580 267 l 580 1 l 394 1 l 394 267 l 64 267 l 64 455 m 394 455 l 394 840 l 240 455 l 394 455 z "},"5":{"ha":705,"x_min":64,"x_max":641,"o":"m 270 1051 l 270 785 q 348 846 298 825 q 410 857 375 857 q 591 771 533 857 q 641 562 641 697 l 641 296 q 554 71 641 159 q 345 -14 472 -14 q 142 75 223 -14 q 64 282 64 160 l 64 312 l 243 326 l 247 283 q 307 184 254 209 q 340 177 323 177 q 455 296 455 177 l 455 599 q 415 689 455 653 q 363 705 397 705 q 290 667 314 705 q 270 596 270 633 l 270 562 l 83 562 l 83 1238 l 628 1238 l 628 1051 l 270 1051 z "},"6":{"ha":690,"x_min":64,"x_max":626,"o":"m 432 930 l 432 961 q 408 1037 432 1006 q 339 1068 384 1068 q 271 1037 295 1068 q 247 961 247 1006 l 247 714 q 388 771 311 771 q 572 686 511 771 q 626 477 626 611 l 626 265 l 625 265 q 540 67 619 147 q 345 -13 461 -13 q 142 75 222 -13 q 64 282 64 160 l 64 957 q 108 1121 64 1048 q 233 1229 152 1194 q 345 1253 284 1253 q 548 1164 468 1253 q 626 957 626 1079 l 626 930 l 432 930 m 248 285 q 270 210 248 240 q 339 178 295 178 q 408 210 384 178 q 432 285 432 240 l 432 514 q 393 603 432 567 q 340 619 374 619 q 267 581 292 619 q 248 511 248 549 l 248 285 z "},"7":{"ha":689,"x_min":64,"x_max":624,"o":"m 624 1238 l 624 1051 l 363 1 l 181 1 l 442 1051 l 64 1051 l 64 1238 l 624 1238 z "},"8":{"ha":734,"x_min":64,"x_max":670,"o":"m 670 282 q 583 73 670 159 q 374 -13 496 -13 l 359 -13 q 150 74 236 -13 q 64 282 64 161 l 64 395 q 140 593 64 508 q 216 653 173 629 q 100 781 141 691 q 79 898 79 828 l 79 965 q 150 1164 79 1085 q 359 1253 229 1253 l 374 1253 q 584 1164 505 1253 q 655 965 655 1084 l 655 898 q 586 706 655 782 q 518 653 555 673 q 646 512 601 607 q 670 395 670 464 l 670 282 m 483 370 q 433 518 483 480 q 367 536 409 536 q 266 472 293 536 q 251 370 251 434 l 251 311 q 288 212 251 250 q 367 179 320 181 q 472 254 443 182 q 483 311 483 277 l 483 370 m 489 914 q 409 1074 487 1042 q 367 1082 392 1082 q 288 1055 319 1082 q 253 1000 263 1034 q 245 914 243 966 q 270 798 248 834 q 367 751 300 751 q 465 801 434 751 q 489 914 490 843 z "},"9":{"ha":690,"x_min":64,"x_max":626,"o":"m 345 1253 q 548 1164 468 1253 q 626 957 626 1079 l 626 282 q 546 73 626 159 q 345 -13 466 -13 q 142 75 222 -13 q 64 282 64 160 l 64 309 l 257 309 l 257 278 q 282 202 257 233 q 350 172 306 172 q 419 202 395 172 q 443 278 443 233 l 443 526 q 302 468 378 468 q 118 553 180 468 q 64 763 64 628 l 64 975 l 65 975 q 114 1129 69 1060 q 236 1231 159 1198 q 345 1253 286 1253 m 443 955 q 419 1031 443 1000 q 350 1062 395 1062 q 282 1031 306 1062 q 257 955 257 1000 l 257 726 q 297 636 257 672 q 349 619 315 619 q 438 694 420 619 q 443 729 443 717 l 443 955 z "},"\u0000":{"ha":1389,"x_min":0,"x_max":0,"o":""},"\r":{"ha":128,"x_min":0,"x_max":0,"o":""}," ":{"ha":128,"x_min":0,"x_max":0,"o":""},"!":{"ha":315,"x_min":64,"x_max":251,"o":"m 64 545 l 64 1237 l 251 1237 l 251 545 l 237 307 l 78 307 l 64 545 m 64 0 l 64 186 l 251 186 l 251 0 l 64 0 z "},"\"":{"ha":522,"x_min":64,"x_max":458,"o":"m 93 1150 l 64 1432 l 237 1432 l 208 1150 l 93 1150 m 314 1150 l 285 1432 l 458 1432 l 429 1150 l 314 1150 z "},"#":{"ha":1138,"x_min":64,"x_max":1074,"o":"m 851 715 l 812 480 l 1004 480 l 976 293 l 781 293 l 733 0 l 546 0 l 595 293 l 434 293 l 386 0 l 199 0 l 248 293 l 64 293 l 93 480 l 278 480 l 318 715 l 134 715 l 163 903 l 348 903 l 403 1238 l 590 1238 l 535 903 l 695 903 l 751 1238 l 937 1238 l 882 903 l 1074 903 l 1046 715 l 851 715 m 664 715 l 504 715 l 466 480 l 625 480 l 664 715 z "},"$":{"ha":746,"x_min":64,"x_max":681,"o":"m 681 317 q 591 68 685 157 q 452 1 535 16 l 452 -86 l 294 -86 l 294 5 q 122 137 182 34 q 64 344 71 226 l 243 357 q 299 201 254 248 q 376 167 332 165 q 473 227 437 169 q 492 309 492 255 q 423 462 492 385 q 256 618 367 514 q 132 768 171 700 q 84 953 84 853 q 129 1127 84 1049 q 294 1252 184 1225 l 294 1332 l 452 1332 l 452 1252 q 576 1189 527 1235 q 673 977 663 1108 l 493 944 q 450 1063 485 1019 q 377 1093 426 1093 q 299 1048 326 1093 q 277 957 277 1011 q 350 783 277 872 q 432 705 377 752 q 519 629 497 652 q 624 493 588 558 q 681 317 679 397 z "},"%":{"ha":986,"x_min":64,"x_max":922,"o":"m 374 782 q 328 674 374 719 q 219 628 282 628 q 109 674 155 628 q 64 782 64 719 l 64 1135 q 109 1245 64 1199 q 219 1290 155 1290 q 328 1244 283 1290 q 374 1135 374 1199 l 374 782 m 160 784 q 176 744 160 761 q 216 728 192 728 q 256 744 240 728 q 272 784 272 761 l 272 1137 q 256 1177 272 1161 q 216 1194 240 1194 q 176 1177 192 1194 q 160 1137 160 1161 l 160 784 m 768 655 q 877 609 833 655 q 922 500 922 563 l 922 147 q 877 38 922 83 q 768 -6 832 -6 q 659 39 704 -6 q 614 147 614 84 l 614 500 q 659 610 614 564 q 768 655 704 655 m 822 502 q 805 542 822 526 q 765 558 789 558 q 726 542 742 558 q 709 502 709 526 l 709 149 q 726 109 709 125 q 765 93 742 93 q 805 109 789 93 q 822 149 822 125 l 822 502 m 233 -21 l 123 -21 l 755 1287 l 863 1287 l 233 -21 z "},"&":{"ha":860,"x_min":64,"x_max":796,"o":"m 791 582 q 671 249 747 385 q 796 182 743 182 l 796 10 q 572 109 688 10 q 335 -8 462 -8 q 112 112 189 -8 q 64 286 64 188 q 110 485 64 382 q 163 576 118 502 q 212 652 187 616 l 174 740 q 136 827 146 801 q 109 917 116 877 q 100 1004 100 962 q 136 1156 100 1087 q 245 1266 174 1229 q 369 1296 301 1296 q 508 1258 445 1296 q 605 1153 571 1220 q 631 1036 631 1099 q 553 824 631 924 l 513 771 q 411 636 458 699 q 551 395 473 507 q 622 619 598 500 l 791 582 m 271 1005 q 328 814 271 950 q 352 843 340 829 l 377 876 l 416 928 q 460 1035 460 985 q 450 1091 460 1071 q 369 1153 425 1153 q 293 1101 321 1153 q 271 1005 271 1059 m 335 164 q 455 235 392 164 q 302 473 379 332 q 266 412 284 444 q 237 286 237 344 q 259 202 237 235 q 335 164 286 164 z "},"'":{"ha":301,"x_min":64,"x_max":237,"o":"m 64 1432 l 237 1432 l 208 1150 l 93 1150 l 64 1432 z "},"(":{"ha":498,"x_min":64,"x_max":434,"o":"m 431 1351 q 336 1126 378 1241 q 251 792 271 943 q 243 678 243 733 q 338 213 243 497 q 434 -30 381 89 l 314 -91 q 188 153 244 24 q 64 678 64 442 q 142 1073 64 864 q 188 1183 162 1126 q 314 1407 245 1305 l 431 1351 z "},")":{"ha":497,"x_min":64,"x_max":433,"o":"m 184 1406 q 309 1182 253 1304 q 433 677 433 911 q 309 152 433 441 q 184 -91 254 23 l 64 -30 q 160 212 118 91 q 248 561 225 402 q 255 677 255 621 q 161 1125 255 861 q 67 1350 119 1240 l 184 1406 z "},"*":{"ha":618,"x_min":64,"x_max":553,"o":"m 553 1002 l 402 976 l 505 869 l 377 774 l 306 909 l 234 774 l 104 869 l 213 978 l 64 1002 l 115 1151 l 251 1085 l 229 1238 l 386 1238 l 364 1083 l 505 1151 l 553 1002 z "},"+":{"ha":763,"x_min":64,"x_max":699,"o":"m 451 674 l 699 674 l 699 536 l 451 536 l 451 287 l 313 287 l 313 536 l 64 536 l 64 674 l 313 674 l 313 922 l 451 922 l 451 674 z "},",":{"ha":316,"x_min":64,"x_max":252,"o":"m 64 0 l 64 185 l 252 185 l 252 0 l 183 -142 l 105 -142 l 149 0 l 64 0 z "},"-":{"ha":681,"x_min":64,"x_max":617,"o":"m 64 711 l 617 711 l 617 524 l 64 524 l 64 711 z "},".":{"ha":315,"x_min":64,"x_max":251,"o":"m 64 185 l 251 185 l 251 -1 l 64 -1 l 64 185 z "},"/":{"ha":796,"x_min":64,"x_max":732,"o":"m 580 1315 l 732 1315 l 216 -37 l 64 -37 l 580 1315 z "},":":{"ha":316,"x_min":64,"x_max":252,"o":"m 64 185 l 252 185 l 252 0 l 64 0 l 64 185 m 64 710 l 252 710 l 252 524 l 64 524 l 64 710 z "},";":{"ha":315,"x_min":64,"x_max":251,"o":"m 64 185 l 251 185 l 251 -1 l 183 -143 l 105 -143 l 148 -1 l 64 -1 l 64 185 m 64 710 l 251 710 l 251 524 l 64 524 l 64 710 z "},"<":{"ha":747,"x_min":64,"x_max":683,"o":"m 683 941 l 683 784 l 257 609 l 683 430 l 683 274 l 64 542 l 64 677 l 683 941 z "},"=":{"ha":763,"x_min":64,"x_max":699,"o":"m 64 701 l 64 839 l 699 839 l 699 701 l 64 701 m 64 431 l 64 569 l 699 569 l 699 431 l 64 431 z "},">":{"ha":747,"x_min":64,"x_max":683,"o":"m 64 941 l 683 674 l 683 539 l 64 274 l 64 430 l 489 607 l 64 784 l 64 941 z "},"?":{"ha":717,"x_min":64,"x_max":653,"o":"m 365 1253 q 592 1145 515 1253 q 653 946 653 1060 q 480 582 653 755 q 416 442 420 522 q 414 383 414 415 l 414 309 l 227 309 l 227 383 q 313 642 227 557 q 440 831 405 734 q 460 949 460 887 q 431 1050 460 1013 q 339 1084 400 1092 q 258 1006 283 1077 q 244 937 248 977 l 64 969 q 141 1163 74 1084 q 267 1240 186 1216 q 365 1253 310 1253 m 227 179 l 414 179 l 414 -9 l 227 -9 l 227 179 z "},"@":{"ha":1389,"x_min":64,"x_max":1325,"o":"m 1122 189 l 1325 189 l 1306 166 q 1045 -38 1202 36 q 721 -109 891 -109 q 253 79 441 -109 q 64 577 64 267 q 240 1096 64 885 q 728 1307 415 1307 q 1034 1235 916 1307 q 1311 714 1311 1065 q 1200 353 1311 516 q 885 170 1075 170 q 753 252 784 170 q 671 191 706 209 q 569 170 627 170 q 355 282 430 170 q 290 526 290 379 q 377 867 290 710 q 651 1054 480 1054 q 829 963 759 1054 l 838 1029 l 1025 1029 l 917 349 q 932 332 917 332 q 1049 395 989 332 q 1124 507 1093 442 q 1164 714 1164 594 q 1046 1035 1164 912 q 731 1158 928 1158 q 358 1003 504 1158 q 211 585 211 847 q 344 195 211 345 q 720 38 483 38 q 1118 185 937 38 l 1122 189 m 742 513 q 775 753 775 639 q 755 850 775 811 q 676 901 729 901 q 523 731 575 901 q 485 480 485 611 q 507 374 485 419 q 590 315 536 315 q 695 385 655 315 q 742 513 718 424 z "},"A":{"ha":802,"x_min":64,"x_max":738,"o":"m 304 284 l 258 0 l 64 0 l 274 1236 l 531 1236 l 738 0 l 543 0 l 498 284 l 304 284 m 401 953 l 332 466 l 471 466 l 401 953 z "},"B":{"ha":757,"x_min":64,"x_max":692,"o":"m 64 0 l 64 1237 l 343 1237 q 543 1179 454 1237 q 651 1026 618 1129 q 669 895 669 971 q 603 695 669 770 q 538 647 575 664 q 643 553 600 623 q 686 431 672 506 q 692 345 692 393 q 648 146 692 228 q 550 43 614 82 q 409 0 479 0 l 64 0 m 265 184 l 343 184 q 474 282 438 184 q 487 359 487 316 q 448 510 487 463 q 343 553 412 553 l 265 553 l 265 184 m 265 732 l 343 732 q 460 817 430 732 q 471 895 471 848 q 433 1011 471 972 q 343 1048 399 1048 l 265 1048 l 265 732 z "},"C":{"ha":719,"x_min":64,"x_max":655,"o":"m 360 -16 q 150 71 237 -16 q 64 279 64 157 l 64 954 q 151 1163 64 1077 q 360 1250 238 1250 q 569 1163 483 1250 q 655 954 655 1076 l 655 813 l 462 813 l 462 958 q 430 1034 462 1002 q 354 1065 399 1065 q 279 1034 310 1065 q 248 958 248 1002 l 248 281 q 279 206 248 237 q 354 175 310 175 q 430 206 399 175 q 462 281 462 237 l 462 452 l 655 452 l 655 279 q 568 70 655 156 q 360 -16 481 -16 z "},"D":{"ha":714,"x_min":64,"x_max":650,"o":"m 650 296 q 564 87 650 174 q 357 0 478 0 l 64 0 l 64 1237 l 357 1237 q 565 1150 479 1237 q 650 942 650 1063 l 650 296 m 251 184 l 363 184 q 438 217 407 184 q 469 292 469 249 l 469 939 q 437 1015 469 983 q 363 1047 406 1047 l 251 1047 l 251 184 z "},"E":{"ha":659,"x_min":64,"x_max":595,"o":"m 64 0 l 64 1237 l 595 1237 l 595 1051 l 251 1051 l 251 712 l 502 712 l 502 525 l 251 525 l 251 186 l 595 186 l 595 0 l 64 0 z "},"F":{"ha":659,"x_min":64,"x_max":595,"o":"m 251 0 l 64 0 l 64 1237 l 595 1237 l 595 1051 l 251 1051 l 251 712 l 502 712 l 502 525 l 251 525 l 251 0 z "},"G":{"ha":719,"x_min":64,"x_max":655,"o":"m 360 -16 q 150 71 237 -16 q 64 279 64 158 l 64 954 q 151 1163 64 1077 q 360 1250 238 1250 q 569 1163 483 1250 q 655 954 655 1076 l 655 813 l 462 813 l 462 958 q 430 1034 462 1002 q 354 1065 399 1065 q 279 1034 310 1065 q 248 958 248 1002 l 248 281 q 279 206 248 237 q 354 175 310 175 q 430 206 399 175 q 462 281 462 237 l 462 525 l 358 525 l 358 711 l 655 711 l 655 279 q 568 70 655 156 q 360 -16 481 -16 z "},"H":{"ha":726,"x_min":64,"x_max":662,"o":"m 252 524 l 252 0 l 64 0 l 64 1236 l 252 1236 l 252 711 l 474 711 l 474 1236 l 662 1236 l 662 0 l 474 0 l 474 524 l 252 524 z "},"I":{"ha":315,"x_min":64,"x_max":251,"o":"m 251 0 l 64 0 l 64 1236 l 251 1236 l 251 0 z "},"J":{"ha":539,"x_min":64,"x_max":474,"o":"m 474 280 q 388 72 474 157 q 180 -14 302 -14 q 64 1 109 -14 l 91 175 q 145 169 122 169 q 184 170 159 168 q 261 202 230 173 q 292 276 292 232 l 292 1234 l 474 1234 l 474 280 z "},"K":{"ha":785,"x_min":64,"x_max":721,"o":"m 252 391 l 252 0 l 64 0 l 64 1237 l 252 1237 l 252 796 l 478 1237 l 678 1237 l 422 731 l 721 0 l 502 0 l 307 501 l 252 391 z "},"L":{"ha":636,"x_min":64,"x_max":572,"o":"m 572 0 l 64 0 l 64 1236 l 251 1236 l 251 185 l 572 185 l 572 0 z "},"M":{"ha":993,"x_min":64,"x_max":929,"o":"m 251 0 l 64 0 l 64 1237 l 331 1237 l 505 350 l 672 1237 l 929 1237 l 929 0 l 743 0 l 743 777 l 581 0 l 431 0 l 251 775 l 251 0 z "},"N":{"ha":771,"x_min":64,"x_max":707,"o":"m 274 1237 l 521 406 l 521 1237 l 707 1237 l 707 0 l 507 0 l 251 792 l 251 0 l 64 0 l 64 1237 l 274 1237 z "},"O":{"ha":719,"x_min":64,"x_max":655,"o":"m 359 1252 q 569 1165 482 1252 q 655 956 655 1078 l 655 281 q 568 72 655 158 q 359 -15 481 -15 q 150 72 236 -15 q 64 281 64 159 l 64 956 q 151 1165 64 1079 q 359 1252 238 1252 m 461 960 q 430 1035 461 1004 q 354 1066 399 1066 q 278 1035 310 1066 q 247 960 247 1004 l 247 283 q 278 208 247 239 q 354 177 310 177 q 430 208 399 177 q 461 283 461 239 l 461 960 z "},"P":{"ha":714,"x_min":64,"x_max":650,"o":"m 358 1236 q 575 1150 494 1236 q 650 941 650 1068 l 650 762 q 565 552 650 639 q 358 466 479 466 l 251 466 l 251 0 l 64 0 l 64 1236 l 358 1236 m 470 938 q 440 1016 470 986 q 363 1046 411 1046 l 251 1046 l 251 650 l 363 650 q 438 682 407 650 q 470 758 470 713 l 470 938 z "},"Q":{"ha":751,"x_min":64,"x_max":687,"o":"m 655 281 q 616 133 655 201 q 687 105 640 105 l 687 -69 q 495 19 546 -69 q 360 -15 433 -15 q 150 72 237 -15 q 64 281 64 159 l 64 956 q 151 1165 64 1079 q 360 1252 238 1252 q 569 1164 483 1252 q 655 956 655 1077 l 655 281 m 462 960 q 430 1035 462 1004 q 354 1066 399 1066 q 279 1035 310 1066 q 248 960 248 1004 l 248 283 q 279 208 248 239 q 354 177 310 177 q 430 208 399 177 q 462 283 462 239 l 462 960 z "},"R":{"ha":754,"x_min":64,"x_max":690,"o":"m 358 1236 q 587 1150 514 1236 q 651 941 651 1075 l 651 762 q 551 540 651 630 l 690 0 l 488 0 l 375 467 q 358 466 367 466 l 251 466 l 251 0 l 64 0 l 64 1236 l 358 1236 m 470 938 q 363 1046 470 1046 l 251 1046 l 251 650 l 363 650 q 438 682 407 650 q 470 758 470 713 l 470 938 z "},"S":{"ha":745,"x_min":64,"x_max":681,"o":"m 681 308 q 614 87 683 179 q 485 -1 568 25 q 382 -15 441 -15 q 200 39 272 -15 q 105 160 140 84 q 64 335 70 237 l 242 348 q 299 192 254 241 q 376 158 332 156 q 473 218 437 160 q 492 300 492 247 q 422 453 492 377 q 256 610 367 505 q 125 770 164 699 q 84 944 84 850 q 197 1199 84 1113 q 371 1252 267 1252 q 542 1207 471 1252 q 631 1111 597 1173 q 672 968 665 1049 l 493 935 q 450 1054 485 1011 q 376 1084 424 1084 q 298 1039 325 1084 q 276 948 276 1002 q 349 775 276 863 q 432 696 377 742 q 518 620 497 642 q 624 484 587 551 q 653 426 642 453 q 681 308 680 360 z "},"T":{"ha":710,"x_min":64,"x_max":646,"o":"m 262 1050 l 64 1050 l 64 1236 l 646 1236 l 646 1050 l 449 1050 l 449 0 l 262 0 l 262 1050 z "},"U":{"ha":719,"x_min":64,"x_max":655,"o":"m 359 -14 q 150 72 236 -14 q 64 280 64 158 l 64 1236 l 247 1236 l 247 282 q 278 207 247 238 q 354 176 310 176 q 430 207 399 176 q 461 282 461 238 l 461 1236 l 655 1236 l 655 280 q 568 71 655 156 q 359 -14 481 -14 z "},"V":{"ha":831,"x_min":64,"x_max":766,"o":"m 285 0 l 64 1236 l 259 1236 l 414 274 l 571 1236 l 766 1236 l 542 0 l 285 0 z "},"W":{"ha":1090,"x_min":64,"x_max":1026,"o":"m 831 1236 l 1026 1236 l 833 0 l 654 0 l 548 675 l 450 0 l 271 0 l 64 1236 l 259 1236 l 357 574 l 447 1236 l 642 1236 l 740 574 l 831 1236 z "},"X":{"ha":816,"x_min":64,"x_max":752,"o":"m 752 0 l 551 0 l 408 393 l 264 0 l 64 0 l 307 621 l 64 1236 l 270 1236 l 408 854 l 545 1236 l 752 1236 l 509 621 l 752 0 z "},"Y":{"ha":815,"x_min":64,"x_max":751,"o":"m 314 518 l 64 1237 l 269 1237 l 407 793 l 545 1237 l 751 1237 l 500 518 l 500 0 l 314 0 l 314 518 z "},"Z":{"ha":673,"x_min":64,"x_max":609,"o":"m 609 1236 l 609 1050 l 265 185 l 609 185 l 609 0 l 64 0 l 64 185 l 408 1050 l 64 1050 l 64 1236 l 609 1236 z "},"[":{"ha":442,"x_min":64,"x_max":378,"o":"m 64 1314 l 378 1314 l 378 1126 l 252 1126 l 252 184 l 378 184 l 378 -1 l 64 -1 l 64 1314 z "},"\\":{"ha":796,"x_min":64,"x_max":732,"o":"m 64 1314 l 215 1314 l 732 -37 l 580 -37 l 64 1314 z "},"]":{"ha":441,"x_min":64,"x_max":377,"o":"m 64 1315 l 377 1315 l 377 -1 l 64 -1 l 64 185 l 190 185 l 190 1127 l 64 1127 l 64 1315 z "},"^":{"ha":527,"x_min":64,"x_max":463,"o":"m 309 1432 l 463 1086 l 334 1086 l 264 1255 l 194 1086 l 64 1086 l 218 1432 l 309 1432 z "},"_":{"ha":1082,"x_min":64,"x_max":1018,"o":"m 64 -207 l 64 -70 l 1018 -70 l 1018 -207 l 64 -207 z "},"`":{"ha":401,"x_min":64,"x_max":337,"o":"m 64 1397 l 237 1397 l 337 1114 l 222 1114 l 64 1397 z "},"a":{"ha":802,"x_min":64,"x_max":738,"o":"m 304 284 l 258 0 l 64 0 l 274 1236 l 531 1236 l 738 0 l 543 0 l 498 284 l 304 284 m 401 953 l 332 466 l 471 466 l 401 953 z "},"b":{"ha":757,"x_min":64,"x_max":692,"o":"m 64 0 l 64 1237 l 343 1237 q 543 1179 454 1237 q 651 1026 618 1129 q 669 895 669 971 q 603 695 669 770 q 538 647 575 664 q 643 553 600 623 q 686 431 672 506 q 692 345 692 393 q 648 146 692 228 q 550 43 614 82 q 409 0 479 0 l 64 0 m 265 184 l 343 184 q 474 282 438 184 q 487 359 487 316 q 448 510 487 463 q 343 553 412 553 l 265 553 l 265 184 m 265 732 l 343 732 q 460 817 430 732 q 471 895 471 848 q 433 1011 471 972 q 343 1048 399 1048 l 265 1048 l 265 732 z "},"c":{"ha":719,"x_min":64,"x_max":655,"o":"m 360 -16 q 150 71 237 -16 q 64 279 64 157 l 64 954 q 151 1163 64 1077 q 360 1250 238 1250 q 569 1163 483 1250 q 655 954 655 1076 l 655 813 l 462 813 l 462 958 q 430 1034 462 1002 q 354 1065 399 1065 q 279 1034 310 1065 q 248 958 248 1002 l 248 281 q 279 206 248 237 q 354 175 310 175 q 430 206 399 175 q 462 281 462 237 l 462 452 l 655 452 l 655 279 q 568 70 655 156 q 360 -16 481 -16 z "},"d":{"ha":714,"x_min":64,"x_max":650,"o":"m 650 296 q 564 87 650 174 q 357 0 478 0 l 64 0 l 64 1237 l 357 1237 q 565 1150 479 1237 q 650 942 650 1063 l 650 296 m 251 184 l 363 184 q 438 217 407 184 q 469 292 469 249 l 469 939 q 437 1015 469 983 q 363 1047 406 1047 l 251 1047 l 251 184 z "},"e":{"ha":659,"x_min":64,"x_max":595,"o":"m 64 0 l 64 1237 l 595 1237 l 595 1051 l 251 1051 l 251 712 l 502 712 l 502 525 l 251 525 l 251 186 l 595 186 l 595 0 l 64 0 z "},"f":{"ha":659,"x_min":64,"x_max":595,"o":"m 251 0 l 64 0 l 64 1237 l 595 1237 l 595 1051 l 251 1051 l 251 712 l 502 712 l 502 525 l 251 525 l 251 0 z "},"g":{"ha":719,"x_min":64,"x_max":655,"o":"m 360 -16 q 150 71 237 -16 q 64 279 64 158 l 64 954 q 151 1163 64 1077 q 360 1250 238 1250 q 569 1163 483 1250 q 655 954 655 1076 l 655 813 l 462 813 l 462 958 q 430 1034 462 1002 q 354 1065 399 1065 q 279 1034 310 1065 q 248 958 248 1002 l 248 281 q 279 206 248 237 q 354 175 310 175 q 430 206 399 175 q 462 281 462 237 l 462 525 l 358 525 l 358 711 l 655 711 l 655 279 q 568 70 655 156 q 360 -16 481 -16 z "},"h":{"ha":726,"x_min":64,"x_max":662,"o":"m 252 524 l 252 0 l 64 0 l 64 1236 l 252 1236 l 252 711 l 474 711 l 474 1236 l 662 1236 l 662 0 l 474 0 l 474 524 l 252 524 z "},"i":{"ha":315,"x_min":64,"x_max":251,"o":"m 251 0 l 64 0 l 64 1236 l 251 1236 l 251 0 z "},"j":{"ha":539,"x_min":64,"x_max":474,"o":"m 474 280 q 388 72 474 157 q 180 -14 302 -14 q 64 1 109 -14 l 91 175 q 145 169 122 169 q 184 170 159 168 q 261 202 230 173 q 292 276 292 232 l 292 1234 l 474 1234 l 474 280 z "},"k":{"ha":785,"x_min":64,"x_max":721,"o":"m 252 391 l 252 0 l 64 0 l 64 1237 l 252 1237 l 252 796 l 478 1237 l 678 1237 l 422 731 l 721 0 l 502 0 l 307 501 l 252 391 z "},"l":{"ha":636,"x_min":64,"x_max":572,"o":"m 572 0 l 64 0 l 64 1236 l 251 1236 l 251 185 l 572 185 l 572 0 z "},"m":{"ha":993,"x_min":64,"x_max":929,"o":"m 251 0 l 64 0 l 64 1237 l 331 1237 l 505 350 l 672 1237 l 929 1237 l 929 0 l 743 0 l 743 777 l 581 0 l 431 0 l 251 775 l 251 0 z "},"n":{"ha":771,"x_min":64,"x_max":707,"o":"m 274 1237 l 521 406 l 521 1237 l 707 1237 l 707 0 l 507 0 l 251 792 l 251 0 l 64 0 l 64 1237 l 274 1237 z "},"o":{"ha":719,"x_min":64,"x_max":655,"o":"m 359 1252 q 569 1165 482 1252 q 655 956 655 1078 l 655 281 q 568 72 655 158 q 359 -15 481 -15 q 150 72 236 -15 q 64 281 64 159 l 64 956 q 151 1165 64 1079 q 359 1252 238 1252 m 461 960 q 430 1035 461 1004 q 354 1066 399 1066 q 278 1035 310 1066 q 247 960 247 1004 l 247 283 q 278 208 247 239 q 354 177 310 177 q 430 208 399 177 q 461 283 461 239 l 461 960 z "},"p":{"ha":714,"x_min":64,"x_max":650,"o":"m 358 1236 q 575 1150 494 1236 q 650 941 650 1068 l 650 762 q 565 552 650 639 q 358 466 479 466 l 251 466 l 251 0 l 64 0 l 64 1236 l 358 1236 m 470 938 q 440 1016 470 986 q 363 1046 411 1046 l 251 1046 l 251 650 l 363 650 q 438 682 407 650 q 470 758 470 713 l 470 938 z "},"q":{"ha":751,"x_min":64,"x_max":687,"o":"m 655 281 q 616 133 655 201 q 687 105 640 105 l 687 -69 q 495 19 546 -69 q 360 -15 433 -15 q 150 72 237 -15 q 64 281 64 159 l 64 956 q 151 1165 64 1079 q 360 1252 238 1252 q 569 1164 483 1252 q 655 956 655 1077 l 655 281 m 462 960 q 430 1035 462 1004 q 354 1066 399 1066 q 279 1035 310 1066 q 248 960 248 1004 l 248 283 q 279 208 248 239 q 354 177 310 177 q 430 208 399 177 q 462 283 462 239 l 462 960 z "},"r":{"ha":754,"x_min":64,"x_max":690,"o":"m 358 1236 q 587 1150 514 1236 q 651 941 651 1075 l 651 762 q 551 540 651 630 l 690 0 l 488 0 l 375 467 q 358 466 367 466 l 251 466 l 251 0 l 64 0 l 64 1236 l 358 1236 m 470 938 q 363 1046 470 1046 l 251 1046 l 251 650 l 363 650 q 438 682 407 650 q 470 758 470 713 l 470 938 z "},"s":{"ha":745,"x_min":64,"x_max":681,"o":"m 681 308 q 614 87 683 179 q 485 -1 568 25 q 382 -15 441 -15 q 200 39 272 -15 q 105 160 140 84 q 64 335 70 237 l 242 348 q 299 192 254 241 q 376 158 332 156 q 473 218 437 160 q 492 300 492 247 q 422 453 492 377 q 256 610 367 505 q 125 770 164 699 q 84 944 84 850 q 197 1199 84 1113 q 371 1252 267 1252 q 542 1207 471 1252 q 631 1111 597 1173 q 672 968 665 1049 l 493 935 q 450 1054 485 1011 q 376 1084 424 1084 q 298 1039 325 1084 q 276 948 276 1002 q 349 775 276 863 q 432 696 377 742 q 518 620 497 642 q 624 484 587 551 q 653 426 642 453 q 681 308 680 360 z "},"t":{"ha":710,"x_min":64,"x_max":646,"o":"m 262 1050 l 64 1050 l 64 1236 l 646 1236 l 646 1050 l 449 1050 l 449 0 l 262 0 l 262 1050 z "},"u":{"ha":719,"x_min":64,"x_max":655,"o":"m 359 -14 q 150 72 236 -14 q 64 280 64 158 l 64 1236 l 247 1236 l 247 282 q 278 207 247 238 q 354 176 310 176 q 430 207 399 176 q 461 282 461 238 l 461 1236 l 655 1236 l 655 280 q 568 71 655 156 q 359 -14 481 -14 z "},"v":{"ha":831,"x_min":64,"x_max":766,"o":"m 285 0 l 64 1236 l 259 1236 l 414 274 l 571 1236 l 766 1236 l 542 0 l 285 0 z "},"w":{"ha":1090,"x_min":64,"x_max":1026,"o":"m 831 1236 l 1026 1236 l 833 0 l 654 0 l 548 675 l 450 0 l 271 0 l 64 1236 l 259 1236 l 357 574 l 447 1236 l 642 1236 l 740 574 l 831 1236 z "},"x":{"ha":816,"x_min":64,"x_max":752,"o":"m 752 0 l 551 0 l 408 393 l 264 0 l 64 0 l 307 621 l 64 1236 l 270 1236 l 408 854 l 545 1236 l 752 1236 l 509 621 l 752 0 z "},"y":{"ha":815,"x_min":64,"x_max":751,"o":"m 314 518 l 64 1237 l 269 1237 l 407 793 l 545 1237 l 751 1237 l 500 518 l 500 0 l 314 0 l 314 518 z "},"z":{"ha":673,"x_min":64,"x_max":609,"o":"m 609 1236 l 609 1050 l 265 185 l 609 185 l 609 0 l 64 0 l 64 185 l 408 1050 l 64 1050 l 64 1236 l 609 1236 z "},"{":{"ha":529,"x_min":64,"x_max":465,"o":"m 162 1087 q 234 1278 162 1224 q 465 1331 302 1331 l 465 1201 q 348 1178 379 1201 q 318 1081 318 1154 l 318 817 q 293 725 318 769 q 225 660 266 677 q 291 598 263 645 q 318 503 318 554 l 318 238 q 348 141 318 164 q 465 118 379 118 l 465 -11 q 234 41 302 -11 q 162 233 162 96 l 162 423 q 153 550 162 526 q 64 612 132 607 l 64 707 q 153 769 132 713 q 162 896 162 793 l 162 1087 z "},"|":{"ha":306,"x_min":64,"x_max":242,"o":"m 64 1629 l 242 1629 l 242 -102 l 64 -102 l 64 1629 z "},"}":{"ha":529,"x_min":64,"x_max":465,"o":"m 390 734 q 399 719 390 734 q 465 698 407 703 l 465 603 q 405 585 422 599 q 377 542 389 572 q 369 494 371 526 q 368 414 368 479 l 368 224 q 295 33 368 87 q 64 -19 229 -19 l 64 109 q 181 132 151 109 q 211 229 211 155 l 211 494 q 237 587 211 540 q 304 651 263 635 q 238 713 265 667 q 211 808 211 760 l 211 1073 q 181 1170 211 1147 q 64 1193 151 1193 l 64 1322 q 295 1270 227 1322 q 368 1078 368 1215 l 368 887 q 369 808 368 823 q 390 734 372 764 z "},"~":{"ha":732,"x_min":64,"x_max":668,"o":"m 445 1369 q 486 1359 468 1359 q 564 1417 522 1360 l 668 1341 q 481 1232 584 1228 q 331 1284 424 1233 q 242 1321 265 1321 q 168 1267 209 1321 l 64 1344 q 246 1449 145 1453 q 349 1420 292 1448 q 445 1369 398 1395 z "},"":{"ha":505,"x_min":0,"x_max":0,"o":""}," ":{"ha":128,"x_min":0,"x_max":0,"o":""},"­":{"ha":681,"x_min":64,"x_max":617,"o":"m 64 711 l 617 711 l 617 524 l 64 524 l 64 711 z "}," ":{"ha":814,"x_min":0,"x_max":0,"o":""}," ":{"ha":1629,"x_min":0,"x_max":0,"o":""}," ":{"ha":814,"x_min":0,"x_max":0,"o":""}," ":{"ha":1629,"x_min":0,"x_max":0,"o":""}," ":{"ha":543,"x_min":0,"x_max":0,"o":""}," ":{"ha":406,"x_min":0,"x_max":0,"o":""}," ":{"ha":271,"x_min":0,"x_max":0,"o":""}," ":{"ha":271,"x_min":0,"x_max":0,"o":""}," ":{"ha":203,"x_min":0,"x_max":0,"o":""}," ":{"ha":326,"x_min":0,"x_max":0,"o":""}," ":{"ha":90,"x_min":0,"x_max":0,"o":""},"‐":{"ha":681,"x_min":64,"x_max":617,"o":"m 64 711 l 617 711 l 617 524 l 64 524 l 64 711 z "},"‑":{"ha":681,"x_min":64,"x_max":617,"o":"m 64 711 l 617 711 l 617 524 l 64 524 l 64 711 z "},"‒":{"ha":681,"x_min":64,"x_max":617,"o":"m 64 711 l 617 711 l 617 524 l 64 524 l 64 711 z "},"–":{"ha":823,"x_min":64,"x_max":759,"o":"m 64 711 l 759 711 l 759 524 l 64 524 l 64 711 z "},"—":{"ha":1517,"x_min":64,"x_max":1453,"o":"m 64 711 l 1453 711 l 1453 524 l 64 524 l 64 711 z "}," ":{"ha":326,"x_min":0,"x_max":0,"o":""}," ":{"ha":406,"x_min":0,"x_max":0,"o":""},"":{"ha":1238,"x_min":0,"x_max":1238,"o":"m 0 1238 l 1238 1238 l 1238 0 l 0 0 l 0 1238 z "}}}
